<svg xmlns="http://www.w3.org/2000/svg" xmlns:xlink="http://www.w3.org/1999/xlink" width="700" zoomAndPan="magnify" viewBox="0 0 525 149.999998" height="200" preserveAspectRatio="xMidYMid meet" version="1.2"><defs><clipPath id="07f05e0d59"><rect x="0" width="383" y="0" height="60"/></clipPath><clipPath id="a7b543ed61"><rect x="0" width="383" y="0" height="21"/></clipPath><clipPath id="03cefc0c6a"><path d="M 4.285156 14.179688 L 116.785156 14.179688 L 116.785156 134.929688 L 4.285156 134.929688 Z M 4.285156 14.179688 "/></clipPath></defs><g id="c04304018c"><g transform="matrix(1,0,0,1,138,34)"><g clip-path="url(#07f05e0d59)"><g style="fill:#2b2b2b;fill-opacity:1;"><g transform="translate(1.058595, 48.032301)"><path style="stroke:none" d="M 20.609375 -18.5 L 33.3125 -18.5 L 33.3125 -3.4375 C 31.476562 -2.09375 29.523438 -1.117188 27.453125 -0.515625 C 25.390625 0.0859375 23.234375 0.390625 20.984375 0.390625 C 18.035156 0.390625 15.359375 -0.0664062 12.953125 -0.984375 C 10.546875 -1.910156 8.484375 -3.1875 6.765625 -4.8125 C 5.046875 -6.4375 3.71875 -8.363281 2.78125 -10.59375 C 1.851562 -12.820312 1.390625 -15.242188 1.390625 -17.859375 C 1.390625 -20.523438 1.832031 -22.972656 2.71875 -25.203125 C 3.601562 -27.429688 4.863281 -29.351562 6.5 -30.96875 C 8.144531 -32.59375 10.128906 -33.851562 12.453125 -34.75 C 14.785156 -35.644531 17.390625 -36.09375 20.265625 -36.09375 C 21.753906 -36.09375 23.148438 -35.96875 24.453125 -35.71875 C 25.765625 -35.476562 26.972656 -35.144531 28.078125 -34.71875 C 29.179688 -34.300781 30.1875 -33.796875 31.09375 -33.203125 C 32.007812 -32.617188 32.828125 -31.984375 33.546875 -31.296875 L 31.15625 -27.640625 C 30.769531 -27.066406 30.28125 -26.710938 29.6875 -26.578125 C 29.09375 -26.453125 28.453125 -26.601562 27.765625 -27.03125 C 27.109375 -27.425781 26.488281 -27.765625 25.90625 -28.046875 C 25.332031 -28.335938 24.742188 -28.570312 24.140625 -28.75 C 23.535156 -28.925781 22.894531 -29.054688 22.21875 -29.140625 C 21.550781 -29.222656 20.800781 -29.265625 19.96875 -29.265625 C 18.414062 -29.265625 17.019531 -28.988281 15.78125 -28.4375 C 14.539062 -27.894531 13.484375 -27.125 12.609375 -26.125 C 11.734375 -25.125 11.054688 -23.925781 10.578125 -22.53125 C 10.109375 -21.132812 9.875 -19.578125 9.875 -17.859375 C 9.875 -15.960938 10.132812 -14.28125 10.65625 -12.8125 C 11.175781 -11.34375 11.914062 -10.101562 12.875 -9.09375 C 13.832031 -8.082031 14.976562 -7.3125 16.3125 -6.78125 C 17.644531 -6.25 19.117188 -5.984375 20.734375 -5.984375 C 21.734375 -5.984375 22.632812 -6.078125 23.4375 -6.265625 C 24.25 -6.460938 25.039062 -6.726562 25.8125 -7.0625 L 25.8125 -12.46875 L 22.28125 -12.46875 C 21.757812 -12.46875 21.347656 -12.609375 21.046875 -12.890625 C 20.753906 -13.171875 20.609375 -13.519531 20.609375 -13.9375 Z M 20.609375 -18.5 "/></g></g><g style="fill:#2b2b2b;fill-opacity:1;"><g transform="translate(49.412821, 48.032301)"><path style="stroke:none" d="M 18.359375 -6.546875 C 19.460938 -6.546875 20.453125 -6.726562 21.328125 -7.09375 C 22.203125 -7.457031 22.941406 -7.984375 23.546875 -8.671875 C 24.148438 -9.359375 24.613281 -10.195312 24.9375 -11.1875 C 25.257812 -12.175781 25.421875 -13.300781 25.421875 -14.5625 L 25.421875 -35.703125 L 33.703125 -35.703125 L 33.703125 -14.5625 C 33.703125 -12.375 33.34375 -10.363281 32.625 -8.53125 C 31.914062 -6.695312 30.898438 -5.117188 29.578125 -3.796875 C 28.253906 -2.472656 26.644531 -1.441406 24.75 -0.703125 C 22.851562 0.0234375 20.722656 0.390625 18.359375 0.390625 C 15.972656 0.390625 13.832031 0.0234375 11.9375 -0.703125 C 10.039062 -1.441406 8.429688 -2.472656 7.109375 -3.796875 C 5.785156 -5.117188 4.769531 -6.695312 4.0625 -8.53125 C 3.363281 -10.363281 3.015625 -12.375 3.015625 -14.5625 L 3.015625 -35.703125 L 11.296875 -35.703125 L 11.296875 -14.578125 C 11.296875 -13.316406 11.453125 -12.191406 11.765625 -11.203125 C 12.085938 -10.222656 12.550781 -9.382812 13.15625 -8.6875 C 13.757812 -7.988281 14.5 -7.457031 15.375 -7.09375 C 16.25 -6.726562 17.242188 -6.546875 18.359375 -6.546875 Z M 18.359375 -6.546875 "/></g></g><g style="fill:#2b2b2b;fill-opacity:1;"><g transform="translate(99.065931, 48.032301)"><path style="stroke:none" d="M 52.109375 -35.703125 L 41.078125 0 L 33.578125 0 L 26.859375 -22.125 C 26.734375 -22.46875 26.613281 -22.847656 26.5 -23.265625 C 26.382812 -23.679688 26.269531 -24.117188 26.15625 -24.578125 C 26.039062 -24.117188 25.925781 -23.679688 25.8125 -23.265625 C 25.695312 -22.847656 25.570312 -22.46875 25.4375 -22.125 L 18.625 0 L 11.125 0 L 0.09375 -35.703125 L 7.0625 -35.703125 C 7.78125 -35.703125 8.378906 -35.539062 8.859375 -35.21875 C 9.335938 -34.894531 9.648438 -34.460938 9.796875 -33.921875 L 14.703125 -15.296875 C 14.847656 -14.703125 14.992188 -14.054688 15.140625 -13.359375 C 15.285156 -12.671875 15.4375 -11.953125 15.59375 -11.203125 C 15.882812 -12.734375 16.242188 -14.097656 16.671875 -15.296875 L 22.453125 -33.921875 C 22.597656 -34.378906 22.910156 -34.789062 23.390625 -35.15625 C 23.867188 -35.519531 24.453125 -35.703125 25.140625 -35.703125 L 27.59375 -35.703125 C 28.3125 -35.703125 28.890625 -35.535156 29.328125 -35.203125 C 29.773438 -34.867188 30.113281 -34.441406 30.34375 -33.921875 L 36.078125 -15.296875 C 36.503906 -14.148438 36.863281 -12.847656 37.15625 -11.390625 C 37.28125 -12.128906 37.410156 -12.820312 37.546875 -13.46875 C 37.691406 -14.113281 37.835938 -14.722656 37.984375 -15.296875 L 42.890625 -33.921875 C 43.015625 -34.390625 43.320312 -34.800781 43.8125 -35.15625 C 44.3125 -35.519531 44.898438 -35.703125 45.578125 -35.703125 Z M 52.109375 -35.703125 "/></g></g><g style="fill:#2b2b2b;fill-opacity:1;"><g transform="translate(164.20776, 48.032301)"><path style="stroke:none" d="M 22.328125 -13.65625 L 19.015625 -23.421875 C 18.773438 -24.046875 18.515625 -24.78125 18.234375 -25.625 C 17.953125 -26.46875 17.675781 -27.378906 17.40625 -28.359375 C 17.15625 -27.359375 16.890625 -26.429688 16.609375 -25.578125 C 16.335938 -24.734375 16.078125 -24 15.828125 -23.375 L 12.546875 -13.65625 Z M 35.484375 0 L 29.0625 0 C 28.34375 0 27.765625 -0.164062 27.328125 -0.5 C 26.890625 -0.832031 26.554688 -1.265625 26.328125 -1.796875 L 24.21875 -8.015625 L 10.640625 -8.015625 L 8.53125 -1.796875 C 8.351562 -1.335938 8.03125 -0.921875 7.5625 -0.546875 C 7.09375 -0.179688 6.515625 0 5.828125 0 L -0.640625 0 L 13.1875 -35.703125 L 21.671875 -35.703125 Z M 35.484375 0 "/></g></g><g style="fill:#2b2b2b;fill-opacity:1;"><g transform="translate(211.998313, 48.032301)"><path style="stroke:none" d="M 34.625 -35.703125 L 34.625 0 L 26.296875 0 L 26.296875 -15.09375 L 11.78125 -15.09375 L 11.78125 0 L 3.453125 0 L 3.453125 -35.703125 L 11.78125 -35.703125 L 11.78125 -20.78125 L 26.296875 -20.78125 L 26.296875 -35.703125 Z M 34.625 -35.703125 "/></g></g><g style="fill:#2b2b2b;fill-opacity:1;"><g transform="translate(263.023841, 48.032301)"><path style="stroke:none" d="M 22.328125 -13.65625 L 19.015625 -23.421875 C 18.773438 -24.046875 18.515625 -24.78125 18.234375 -25.625 C 17.953125 -26.46875 17.675781 -27.378906 17.40625 -28.359375 C 17.15625 -27.359375 16.890625 -26.429688 16.609375 -25.578125 C 16.335938 -24.734375 16.078125 -24 15.828125 -23.375 L 12.546875 -13.65625 Z M 35.484375 0 L 29.0625 0 C 28.34375 0 27.765625 -0.164062 27.328125 -0.5 C 26.890625 -0.832031 26.554688 -1.265625 26.328125 -1.796875 L 24.21875 -8.015625 L 10.640625 -8.015625 L 8.53125 -1.796875 C 8.351562 -1.335938 8.03125 -0.921875 7.5625 -0.546875 C 7.09375 -0.179688 6.515625 0 5.828125 0 L -0.640625 0 L 13.1875 -35.703125 L 21.671875 -35.703125 Z M 35.484375 0 "/></g></g><g style="fill:#2b2b2b;fill-opacity:1;"><g transform="translate(310.814394, 48.032301)"><path style="stroke:none" d="M 29.109375 -29.140625 L 19.0625 -29.140625 L 19.0625 0 L 10.78125 0 L 10.78125 -29.140625 L 0.734375 -29.140625 L 0.734375 -35.703125 L 29.109375 -35.703125 Z M 29.109375 -29.140625 "/></g></g><g style="fill:#2b2b2b;fill-opacity:1;"><g transform="translate(353.605433, 48.032301)"><path style="stroke:none" d="M 11.78125 0 L 3.453125 0 L 3.453125 -35.703125 L 11.78125 -35.703125 Z M 11.78125 0 "/></g></g></g></g><g transform="matrix(1,0,0,1,138,93)"><g clip-path="url(#a7b543ed61)"><g style="fill:#2b2b2b;fill-opacity:1;"><g transform="translate(1.058595, 16.709526)"><path style="stroke:none" d="M 9.953125 -2.9375 C 10.078125 -2.9375 10.191406 -2.890625 10.296875 -2.796875 L 11.203125 -1.796875 C 10.691406 -1.171875 10.066406 -0.691406 9.328125 -0.359375 C 8.597656 -0.0234375 7.710938 0.140625 6.671875 0.140625 C 5.742188 0.140625 4.910156 -0.015625 4.171875 -0.328125 C 3.441406 -0.648438 2.8125 -1.09375 2.28125 -1.65625 C 1.757812 -2.21875 1.359375 -2.890625 1.078125 -3.671875 C 0.804688 -4.453125 0.671875 -5.304688 0.671875 -6.234375 C 0.671875 -7.171875 0.816406 -8.03125 1.109375 -8.8125 C 1.410156 -9.59375 1.832031 -10.265625 2.375 -10.828125 C 2.914062 -11.390625 3.5625 -11.828125 4.3125 -12.140625 C 5.070312 -12.453125 5.910156 -12.609375 6.828125 -12.609375 C 7.734375 -12.609375 8.535156 -12.457031 9.234375 -12.15625 C 9.941406 -11.863281 10.546875 -11.472656 11.046875 -10.984375 L 10.265625 -9.90625 C 10.210938 -9.84375 10.148438 -9.785156 10.078125 -9.734375 C 10.015625 -9.679688 9.921875 -9.65625 9.796875 -9.65625 C 9.703125 -9.65625 9.609375 -9.675781 9.515625 -9.71875 C 9.429688 -9.769531 9.332031 -9.832031 9.21875 -9.90625 C 9.113281 -9.976562 8.988281 -10.054688 8.84375 -10.140625 C 8.695312 -10.222656 8.53125 -10.300781 8.34375 -10.375 C 8.15625 -10.445312 7.9375 -10.507812 7.6875 -10.5625 C 7.4375 -10.613281 7.144531 -10.640625 6.8125 -10.640625 C 6.257812 -10.640625 5.75 -10.539062 5.28125 -10.34375 C 4.820312 -10.144531 4.425781 -9.851562 4.09375 -9.46875 C 3.757812 -9.09375 3.5 -8.632812 3.3125 -8.09375 C 3.125 -7.550781 3.03125 -6.929688 3.03125 -6.234375 C 3.03125 -5.535156 3.128906 -4.910156 3.328125 -4.359375 C 3.523438 -3.816406 3.796875 -3.359375 4.140625 -2.984375 C 4.484375 -2.609375 4.882812 -2.320312 5.34375 -2.125 C 5.800781 -1.925781 6.296875 -1.828125 6.828125 -1.828125 C 7.140625 -1.828125 7.421875 -1.84375 7.671875 -1.875 C 7.929688 -1.914062 8.171875 -1.972656 8.390625 -2.046875 C 8.609375 -2.117188 8.8125 -2.210938 9 -2.328125 C 9.195312 -2.453125 9.390625 -2.597656 9.578125 -2.765625 C 9.628906 -2.816406 9.6875 -2.859375 9.75 -2.890625 C 9.8125 -2.921875 9.878906 -2.9375 9.953125 -2.9375 Z M 9.953125 -2.9375 "/></g></g><g style="fill:#2b2b2b;fill-opacity:1;"><g transform="translate(26.274187, 16.709526)"><path style="stroke:none" d="M 8.6875 -1.921875 L 8.6875 0 L 1.390625 0 L 1.390625 -12.46875 L 3.703125 -12.46875 L 3.703125 -1.921875 Z M 8.6875 -1.921875 "/></g></g><g style="fill:#2b2b2b;fill-opacity:1;"><g transform="translate(49.040088, 16.709526)"><path style="stroke:none" d="M 3.71875 -10.625 L 3.71875 -7.171875 L 8.078125 -7.171875 L 8.078125 -5.375 L 3.71875 -5.375 L 3.71875 -1.859375 L 9.25 -1.859375 L 9.25 0 L 1.390625 0 L 1.390625 -12.46875 L 9.25 -12.46875 L 9.25 -10.625 Z M 3.71875 -10.625 "/></g></g><g style="fill:#2b2b2b;fill-opacity:1;"><g transform="translate(72.763432, 16.709526)"><path style="stroke:none" d="M 7.984375 -4.703125 L 6.453125 -8.859375 C 6.378906 -9.046875 6.300781 -9.265625 6.21875 -9.515625 C 6.144531 -9.765625 6.066406 -10.035156 5.984375 -10.328125 C 5.910156 -10.035156 5.832031 -9.757812 5.75 -9.5 C 5.664062 -9.25 5.585938 -9.03125 5.515625 -8.84375 L 4.015625 -4.703125 Z M 12.078125 0 L 10.28125 0 C 10.082031 0 9.914062 -0.046875 9.78125 -0.140625 C 9.65625 -0.242188 9.5625 -0.375 9.5 -0.53125 L 8.578125 -3.078125 L 3.40625 -3.078125 L 2.46875 -0.53125 C 2.425781 -0.394531 2.335938 -0.269531 2.203125 -0.15625 C 2.078125 -0.0507812 1.914062 0 1.71875 0 L -0.09375 0 L 4.8125 -12.46875 L 7.171875 -12.46875 Z M 12.078125 0 "/></g></g><g style="fill:#2b2b2b;fill-opacity:1;"><g transform="translate(98.548301, 16.709526)"><path style="stroke:none" d="M 11.90625 -12.46875 L 11.90625 0 L 10.71875 0 C 10.53125 0 10.375 -0.03125 10.25 -0.09375 C 10.125 -0.15625 10.003906 -0.253906 9.890625 -0.390625 L 3.375 -8.71875 C 3.414062 -8.332031 3.4375 -7.976562 3.4375 -7.65625 L 3.4375 0 L 1.390625 0 L 1.390625 -12.46875 L 2.609375 -12.46875 C 2.703125 -12.46875 2.785156 -12.460938 2.859375 -12.453125 C 2.929688 -12.453125 2.992188 -12.4375 3.046875 -12.40625 C 3.097656 -12.382812 3.148438 -12.347656 3.203125 -12.296875 C 3.253906 -12.242188 3.3125 -12.175781 3.375 -12.09375 L 9.921875 -3.75 C 9.898438 -3.945312 9.882812 -4.144531 9.875 -4.34375 C 9.863281 -4.539062 9.859375 -4.722656 9.859375 -4.890625 L 9.859375 -12.46875 Z M 11.90625 -12.46875 "/></g></g><g style="fill:#2b2b2b;fill-opacity:1;"><g transform="translate(125.644286, 16.709526)"><path style="stroke:none" d="M 3.71875 0 L 1.390625 0 L 1.390625 -12.46875 L 3.71875 -12.46875 Z M 3.71875 0 "/></g></g><g style="fill:#2b2b2b;fill-opacity:1;"><g transform="translate(144.563149, 16.709526)"><path style="stroke:none" d="M 11.90625 -12.46875 L 11.90625 0 L 10.71875 0 C 10.53125 0 10.375 -0.03125 10.25 -0.09375 C 10.125 -0.15625 10.003906 -0.253906 9.890625 -0.390625 L 3.375 -8.71875 C 3.414062 -8.332031 3.4375 -7.976562 3.4375 -7.65625 L 3.4375 0 L 1.390625 0 L 1.390625 -12.46875 L 2.609375 -12.46875 C 2.703125 -12.46875 2.785156 -12.460938 2.859375 -12.453125 C 2.929688 -12.453125 2.992188 -12.4375 3.046875 -12.40625 C 3.097656 -12.382812 3.148438 -12.347656 3.203125 -12.296875 C 3.253906 -12.242188 3.3125 -12.175781 3.375 -12.09375 L 9.921875 -3.75 C 9.898438 -3.945312 9.882812 -4.144531 9.875 -4.34375 C 9.863281 -4.539062 9.859375 -4.722656 9.859375 -4.890625 L 9.859375 -12.46875 Z M 11.90625 -12.46875 "/></g></g><g style="fill:#2b2b2b;fill-opacity:1;"><g transform="translate(171.659134, 16.709526)"><path style="stroke:none" d="M 11.671875 -6.25 L 11.671875 -1.203125 C 11.035156 -0.742188 10.359375 -0.40625 9.640625 -0.1875 C 8.929688 0.03125 8.164062 0.140625 7.34375 0.140625 C 6.332031 0.140625 5.410156 -0.015625 4.578125 -0.328125 C 3.753906 -0.648438 3.050781 -1.09375 2.46875 -1.65625 C 1.882812 -2.21875 1.429688 -2.890625 1.109375 -3.671875 C 0.796875 -4.453125 0.640625 -5.304688 0.640625 -6.234375 C 0.640625 -7.171875 0.789062 -8.03125 1.09375 -8.8125 C 1.40625 -9.59375 1.84375 -10.265625 2.40625 -10.828125 C 2.96875 -11.390625 3.644531 -11.828125 4.4375 -12.140625 C 5.238281 -12.453125 6.140625 -12.609375 7.140625 -12.609375 C 7.640625 -12.609375 8.109375 -12.566406 8.546875 -12.484375 C 8.992188 -12.410156 9.40625 -12.300781 9.78125 -12.15625 C 10.15625 -12.019531 10.492188 -11.847656 10.796875 -11.640625 C 11.109375 -11.441406 11.394531 -11.222656 11.65625 -10.984375 L 11 -9.921875 C 10.894531 -9.753906 10.757812 -9.648438 10.59375 -9.609375 C 10.425781 -9.578125 10.242188 -9.625 10.046875 -9.75 C 9.859375 -9.851562 9.664062 -9.957031 9.46875 -10.0625 C 9.28125 -10.175781 9.070312 -10.273438 8.84375 -10.359375 C 8.613281 -10.441406 8.351562 -10.507812 8.0625 -10.5625 C 7.769531 -10.613281 7.4375 -10.640625 7.0625 -10.640625 C 6.4375 -10.640625 5.875 -10.535156 5.375 -10.328125 C 4.882812 -10.117188 4.460938 -9.820312 4.109375 -9.4375 C 3.765625 -9.050781 3.492188 -8.585938 3.296875 -8.046875 C 3.109375 -7.503906 3.015625 -6.898438 3.015625 -6.234375 C 3.015625 -5.523438 3.113281 -4.890625 3.3125 -4.328125 C 3.519531 -3.765625 3.8125 -3.285156 4.1875 -2.890625 C 4.5625 -2.503906 5.007812 -2.207031 5.53125 -2 C 6.050781 -1.800781 6.632812 -1.703125 7.28125 -1.703125 C 7.738281 -1.703125 8.148438 -1.75 8.515625 -1.84375 C 8.878906 -1.945312 9.234375 -2.082031 9.578125 -2.25 L 9.578125 -4.515625 L 8 -4.515625 C 7.851562 -4.515625 7.738281 -4.554688 7.65625 -4.640625 C 7.570312 -4.722656 7.53125 -4.820312 7.53125 -4.9375 L 7.53125 -6.25 Z M 11.671875 -6.25 "/></g></g><g style="fill:#2b2b2b;fill-opacity:1;"><g transform="translate(197.987437, 16.709526)"><path style="stroke:none" d=""/></g></g><g style="fill:#2b2b2b;fill-opacity:1;"><g transform="translate(215.983347, 16.709526)"><path style="stroke:none" d="M 8.03125 -10.203125 C 7.957031 -10.078125 7.878906 -9.988281 7.796875 -9.9375 C 7.722656 -9.882812 7.628906 -9.859375 7.515625 -9.859375 C 7.398438 -9.859375 7.269531 -9.898438 7.125 -9.984375 C 6.988281 -10.078125 6.820312 -10.175781 6.625 -10.28125 C 6.425781 -10.394531 6.195312 -10.492188 5.9375 -10.578125 C 5.675781 -10.671875 5.367188 -10.71875 5.015625 -10.71875 C 4.691406 -10.71875 4.40625 -10.675781 4.15625 -10.59375 C 3.914062 -10.519531 3.710938 -10.414062 3.546875 -10.28125 C 3.390625 -10.144531 3.269531 -9.976562 3.1875 -9.78125 C 3.113281 -9.59375 3.078125 -9.382812 3.078125 -9.15625 C 3.078125 -8.863281 3.15625 -8.617188 3.3125 -8.421875 C 3.476562 -8.222656 3.695312 -8.050781 3.96875 -7.90625 C 4.238281 -7.769531 4.546875 -7.648438 4.890625 -7.546875 C 5.234375 -7.441406 5.585938 -7.328125 5.953125 -7.203125 C 6.316406 -7.078125 6.671875 -6.929688 7.015625 -6.765625 C 7.359375 -6.597656 7.664062 -6.390625 7.9375 -6.140625 C 8.207031 -5.890625 8.421875 -5.582031 8.578125 -5.21875 C 8.742188 -4.863281 8.828125 -4.425781 8.828125 -3.90625 C 8.828125 -3.34375 8.726562 -2.816406 8.53125 -2.328125 C 8.34375 -1.835938 8.0625 -1.40625 7.6875 -1.03125 C 7.320312 -0.664062 6.867188 -0.378906 6.328125 -0.171875 C 5.796875 0.0351562 5.1875 0.140625 4.5 0.140625 C 4.101562 0.140625 3.710938 0.0976562 3.328125 0.015625 C 2.941406 -0.0546875 2.570312 -0.164062 2.21875 -0.3125 C 1.863281 -0.457031 1.53125 -0.628906 1.21875 -0.828125 C 0.914062 -1.023438 0.640625 -1.25 0.390625 -1.5 L 1.078125 -2.609375 C 1.140625 -2.691406 1.210938 -2.757812 1.296875 -2.8125 C 1.390625 -2.863281 1.488281 -2.890625 1.59375 -2.890625 C 1.738281 -2.890625 1.894531 -2.832031 2.0625 -2.71875 C 2.226562 -2.601562 2.425781 -2.472656 2.65625 -2.328125 C 2.882812 -2.179688 3.148438 -2.050781 3.453125 -1.9375 C 3.765625 -1.820312 4.140625 -1.765625 4.578125 -1.765625 C 5.234375 -1.765625 5.742188 -1.921875 6.109375 -2.234375 C 6.472656 -2.546875 6.65625 -2.992188 6.65625 -3.578125 C 6.65625 -3.910156 6.570312 -4.175781 6.40625 -4.375 C 6.238281 -4.582031 6.019531 -4.753906 5.75 -4.890625 C 5.476562 -5.035156 5.171875 -5.15625 4.828125 -5.25 C 4.484375 -5.351562 4.132812 -5.460938 3.78125 -5.578125 C 3.425781 -5.691406 3.070312 -5.828125 2.71875 -5.984375 C 2.375 -6.148438 2.066406 -6.363281 1.796875 -6.625 C 1.523438 -6.882812 1.304688 -7.207031 1.140625 -7.59375 C 0.984375 -7.976562 0.90625 -8.457031 0.90625 -9.03125 C 0.90625 -9.488281 0.992188 -9.929688 1.171875 -10.359375 C 1.359375 -10.785156 1.625 -11.164062 1.96875 -11.5 C 2.3125 -11.832031 2.734375 -12.097656 3.234375 -12.296875 C 3.742188 -12.503906 4.328125 -12.609375 4.984375 -12.609375 C 5.722656 -12.609375 6.398438 -12.492188 7.015625 -12.265625 C 7.640625 -12.035156 8.171875 -11.710938 8.609375 -11.296875 Z M 8.03125 -10.203125 "/></g></g><g style="fill:#2b2b2b;fill-opacity:1;"><g transform="translate(239.249527, 16.709526)"><path style="stroke:none" d="M 3.71875 -10.625 L 3.71875 -7.171875 L 8.078125 -7.171875 L 8.078125 -5.375 L 3.71875 -5.375 L 3.71875 -1.859375 L 9.25 -1.859375 L 9.25 0 L 1.390625 0 L 1.390625 -12.46875 L 9.25 -12.46875 L 9.25 -10.625 Z M 3.71875 -10.625 "/></g></g><g style="fill:#2b2b2b;fill-opacity:1;"><g transform="translate(262.972871, 16.709526)"><path style="stroke:none" d="M 5.15625 -6.53125 C 5.59375 -6.53125 5.972656 -6.582031 6.296875 -6.6875 C 6.617188 -6.800781 6.882812 -6.953125 7.09375 -7.140625 C 7.3125 -7.335938 7.472656 -7.566406 7.578125 -7.828125 C 7.679688 -8.097656 7.734375 -8.394531 7.734375 -8.71875 C 7.734375 -9.34375 7.523438 -9.820312 7.109375 -10.15625 C 6.691406 -10.5 6.050781 -10.671875 5.1875 -10.671875 L 3.703125 -10.671875 L 3.703125 -6.53125 Z M 11.125 0 L 9.03125 0 C 8.632812 0 8.347656 -0.15625 8.171875 -0.46875 L 5.546875 -4.453125 C 5.453125 -4.609375 5.34375 -4.71875 5.21875 -4.78125 C 5.101562 -4.84375 4.929688 -4.875 4.703125 -4.875 L 3.703125 -4.875 L 3.703125 0 L 1.390625 0 L 1.390625 -12.46875 L 5.1875 -12.46875 C 6.03125 -12.46875 6.753906 -12.378906 7.359375 -12.203125 C 7.972656 -12.035156 8.472656 -11.789062 8.859375 -11.46875 C 9.242188 -11.15625 9.53125 -10.773438 9.71875 -10.328125 C 9.90625 -9.890625 10 -9.410156 10 -8.890625 C 10 -8.460938 9.9375 -8.0625 9.8125 -7.6875 C 9.6875 -7.320312 9.503906 -6.984375 9.265625 -6.671875 C 9.035156 -6.367188 8.75 -6.101562 8.40625 -5.875 C 8.070312 -5.644531 7.6875 -5.460938 7.25 -5.328125 C 7.394531 -5.242188 7.53125 -5.140625 7.65625 -5.015625 C 7.78125 -4.898438 7.894531 -4.765625 8 -4.609375 Z M 11.125 0 "/></g></g><g style="fill:#2b2b2b;fill-opacity:1;"><g transform="translate(287.869316, 16.709526)"><path style="stroke:none" d="M 12.078125 -12.46875 L 7.03125 0 L 4.9375 0 L -0.09375 -12.46875 L 1.765625 -12.46875 C 1.960938 -12.46875 2.125 -12.414062 2.25 -12.3125 C 2.382812 -12.21875 2.484375 -12.097656 2.546875 -11.953125 L 5.484375 -4.34375 C 5.578125 -4.09375 5.671875 -3.816406 5.765625 -3.515625 C 5.859375 -3.222656 5.941406 -2.914062 6.015625 -2.59375 C 6.085938 -2.914062 6.160156 -3.222656 6.234375 -3.515625 C 6.316406 -3.816406 6.410156 -4.09375 6.515625 -4.34375 L 9.4375 -11.953125 C 9.476562 -12.078125 9.566406 -12.191406 9.703125 -12.296875 C 9.835938 -12.410156 10.003906 -12.46875 10.203125 -12.46875 Z M 12.078125 -12.46875 "/></g></g><g style="fill:#2b2b2b;fill-opacity:1;"><g transform="translate(313.654184, 16.709526)"><path style="stroke:none" d="M 3.71875 0 L 1.390625 0 L 1.390625 -12.46875 L 3.71875 -12.46875 Z M 3.71875 0 "/></g></g><g style="fill:#2b2b2b;fill-opacity:1;"><g transform="translate(332.573047, 16.709526)"><path style="stroke:none" d="M 9.953125 -2.9375 C 10.078125 -2.9375 10.191406 -2.890625 10.296875 -2.796875 L 11.203125 -1.796875 C 10.691406 -1.171875 10.066406 -0.691406 9.328125 -0.359375 C 8.597656 -0.0234375 7.710938 0.140625 6.671875 0.140625 C 5.742188 0.140625 4.910156 -0.015625 4.171875 -0.328125 C 3.441406 -0.648438 2.8125 -1.09375 2.28125 -1.65625 C 1.757812 -2.21875 1.359375 -2.890625 1.078125 -3.671875 C 0.804688 -4.453125 0.671875 -5.304688 0.671875 -6.234375 C 0.671875 -7.171875 0.816406 -8.03125 1.109375 -8.8125 C 1.410156 -9.59375 1.832031 -10.265625 2.375 -10.828125 C 2.914062 -11.390625 3.5625 -11.828125 4.3125 -12.140625 C 5.070312 -12.453125 5.910156 -12.609375 6.828125 -12.609375 C 7.734375 -12.609375 8.535156 -12.457031 9.234375 -12.15625 C 9.941406 -11.863281 10.546875 -11.472656 11.046875 -10.984375 L 10.265625 -9.90625 C 10.210938 -9.84375 10.148438 -9.785156 10.078125 -9.734375 C 10.015625 -9.679688 9.921875 -9.65625 9.796875 -9.65625 C 9.703125 -9.65625 9.609375 -9.675781 9.515625 -9.71875 C 9.429688 -9.769531 9.332031 -9.832031 9.21875 -9.90625 C 9.113281 -9.976562 8.988281 -10.054688 8.84375 -10.140625 C 8.695312 -10.222656 8.53125 -10.300781 8.34375 -10.375 C 8.15625 -10.445312 7.9375 -10.507812 7.6875 -10.5625 C 7.4375 -10.613281 7.144531 -10.640625 6.8125 -10.640625 C 6.257812 -10.640625 5.75 -10.539062 5.28125 -10.34375 C 4.820312 -10.144531 4.425781 -9.851562 4.09375 -9.46875 C 3.757812 -9.09375 3.5 -8.632812 3.3125 -8.09375 C 3.125 -7.550781 3.03125 -6.929688 3.03125 -6.234375 C 3.03125 -5.535156 3.128906 -4.910156 3.328125 -4.359375 C 3.523438 -3.816406 3.796875 -3.359375 4.140625 -2.984375 C 4.484375 -2.609375 4.882812 -2.320312 5.34375 -2.125 C 5.800781 -1.925781 6.296875 -1.828125 6.828125 -1.828125 C 7.140625 -1.828125 7.421875 -1.84375 7.671875 -1.875 C 7.929688 -1.914062 8.171875 -1.972656 8.390625 -2.046875 C 8.609375 -2.117188 8.8125 -2.210938 9 -2.328125 C 9.195312 -2.453125 9.390625 -2.597656 9.578125 -2.765625 C 9.628906 -2.816406 9.6875 -2.859375 9.75 -2.890625 C 9.8125 -2.921875 9.878906 -2.9375 9.953125 -2.9375 Z M 9.953125 -2.9375 "/></g></g><g style="fill:#2b2b2b;fill-opacity:1;"><g transform="translate(357.788659, 16.709526)"><path style="stroke:none" d="M 3.71875 -10.625 L 3.71875 -7.171875 L 8.078125 -7.171875 L 8.078125 -5.375 L 3.71875 -5.375 L 3.71875 -1.859375 L 9.25 -1.859375 L 9.25 0 L 1.390625 0 L 1.390625 -12.46875 L 9.25 -12.46875 L 9.25 -10.625 Z M 3.71875 -10.625 "/></g></g></g></g><g clip-rule="nonzero" clip-path="url(#03cefc0c6a)"><path style=" stroke:none;fill-rule:nonzero;fill:#0a7421;fill-opacity:1;" d="M 49.996094 72.183594 L 117.03125 72.183594 L 117.03125 82.132812 C 117.03125 84.730469 116.839844 87.316406 116.460938 89.886719 C 116.078125 92.457031 115.511719 94.988281 114.757812 97.472656 C 114 99.960938 113.070312 102.378906 111.957031 104.730469 C 110.847656 107.078125 109.570312 109.332031 108.125 111.496094 C 106.679688 113.65625 105.085938 115.699219 103.339844 117.625 C 101.597656 119.550781 99.71875 121.339844 97.710938 122.988281 C 95.699219 124.636719 93.582031 126.128906 91.351562 127.464844 C 89.121094 128.800781 86.808594 129.96875 84.40625 130.960938 C 82.003906 131.957031 79.542969 132.769531 77.023438 133.402344 C 74.5 134.03125 71.949219 134.476562 69.363281 134.730469 C 66.773438 134.984375 64.183594 135.046875 61.585938 134.921875 C 58.992188 134.792969 56.417969 134.476562 53.871094 133.96875 C 51.320312 133.460938 48.824219 132.769531 46.375 131.894531 C 43.929688 131.019531 41.558594 129.96875 39.265625 128.742188 C 36.972656 127.519531 34.785156 126.132812 32.695312 124.582031 C 30.609375 123.035156 28.648438 121.339844 26.808594 119.503906 C 24.347656 117.054688 22.152344 114.390625 20.21875 111.503906 C 18.289062 108.621094 16.65625 105.574219 15.328125 102.367188 C 14 99.160156 13 95.851562 12.328125 92.449219 C 11.65625 89.042969 11.328125 85.601562 11.335938 82.132812 C 11.335938 78.785156 11.644531 75.472656 12.265625 72.183594 L 32.765625 72.183594 C 31.742188 75.421875 31.234375 78.738281 31.238281 82.132812 C 31.238281 100.304688 46.023438 115.089844 64.195312 115.089844 C 78.886719 115.09375 91.375 105.40625 95.59375 92.078125 L 64.179688 92.078125 Z M 50.378906 49.175781 L 100.222656 49.175781 L 117.03125 29.28125 L 50.378906 29.28125 C 47.449219 29.277344 44.5625 28.933594 41.714844 28.257812 C 38.867188 27.582031 36.132812 26.589844 33.515625 25.28125 C 30.894531 23.972656 28.460938 22.382812 26.210938 20.507812 C 23.960938 18.636719 21.957031 16.53125 20.191406 14.191406 L 4.285156 26.132812 C 6.972656 29.703125 10.03125 32.925781 13.464844 35.789062 C 16.898438 38.65625 20.613281 41.089844 24.609375 43.09375 C 28.613281 45.089844 32.789062 46.601562 37.140625 47.628906 C 41.496094 48.65625 45.90625 49.171875 50.378906 49.175781 Z M 50.378906 49.175781 "/></g></g></svg>